<?xml version="1.0" encoding="UTF-8" standalone="no"?>
<!-- Created with Inkscape (http://www.inkscape.org/) -->

<svg
   width="12.17083mm"
   height="24.870834mm"
   viewBox="0 0 12.17083 24.870834"
   version="1.1"
   id="svg5"
   xml:space="preserve"
   xmlns:inkscape="http://www.inkscape.org/namespaces/inkscape"
   xmlns:sodipodi="http://sodipodi.sourceforge.net/DTD/sodipodi-0.dtd"
   xmlns:xlink="http://www.w3.org/1999/xlink"
   xmlns="http://www.w3.org/2000/svg"
   xmlns:svg="http://www.w3.org/2000/svg"><sodipodi:namedview
     id="namedview7"
     pagecolor="#ffffff"
     bordercolor="#000000"
     borderopacity="0.25"
     inkscape:showpageshadow="2"
     inkscape:pageopacity="0.0"
     inkscape:pagecheckerboard="0"
     inkscape:deskcolor="#d1d1d1"
     inkscape:document-units="mm"
     showgrid="false" /><defs
     id="defs2" /><g
     inkscape:label="Layer 1"
     inkscape:groupmode="layer"
     id="layer1"
     transform="translate(-81.236879,-94.704351)"><g
       inkscape:label="Ebene 1"
       id="g347"
       transform="matrix(0.26458333,0,0,0.26458333,81.236876,-158.86228)"
       style="fill:#2a7fff"
       inkscape:export-filename="temp_cold.png"
       inkscape:export-xdpi="96"
       inkscape:export-ydpi="96"><use
         x="0"
         y="0"
         xlink:href="#g8408"
         id="use315"
         transform="matrix(-0.99999621,0,0,1,183.03467,790.10162)"
         width="100%"
         height="100%"
         style="fill:#2a7fff" /><use
         x="0"
         y="0"
         xlink:href="#g8394"
         id="use317"
         transform="translate(-65.756235,790.10162)"
         width="100%"
         height="100%"
         style="fill:#2a7fff" /><use
         x="0"
         y="0"
         xlink:href="#path3379-7-3-6-2"
         id="use319"
         transform="translate(56.243765,790.10162)"
         width="100%"
         height="100%"
         style="fill:#2a7fff" /><use
         x="0"
         y="0"
         xlink:href="#text3355-81-8"
         id="use321"
         transform="translate(98.243765,790.10162)"
         width="100%"
         height="100%"
         style="fill:#2a7fff" /><use
         x="0"
         y="0"
         xlink:href="#path5770-7-8-8"
         id="use323"
         transform="translate(28.243765,790.10162)"
         width="100%"
         height="100%"
         style="fill:#2a7fff" /><use
         x="0"
         y="0"
         xlink:href="#g8408"
         id="use325"
         transform="translate(230.24376,790.10162)"
         width="100%"
         height="100%"
         style="fill:#2a7fff" /><use
         x="0"
         y="0"
         xlink:href="#use8412"
         id="use327"
         transform="translate(378)"
         width="100%"
         height="100%"
         style="fill:#2a7fff" /><use
         x="0"
         y="0"
         xlink:href="#text3355-81-8"
         id="use329"
         transform="translate(230.24376,790.10162)"
         width="100%"
         height="100%"
         style="fill:#2a7fff" /><use
         x="0"
         y="0"
         xlink:href="#g8394"
         id="use331"
         transform="translate(230.24376,790.10162)"
         width="100%"
         height="100%"
         style="fill:#2a7fff" /><use
         x="0"
         y="0"
         xlink:href="#path3379-7-3-6-2"
         id="use333"
         transform="translate(230.24376,790.10162)"
         width="100%"
         height="100%"
         style="fill:#2a7fff" /><use
         x="0"
         y="0"
         xlink:href="#path5770-7-8-8"
         id="use335"
         transform="translate(230.24376,790.10162)"
         width="100%"
         height="100%"
         style="fill:#2a7fff" /><use
         x="0"
         y="0"
         xlink:href="#use8402"
         id="use337"
         transform="translate(378)"
         width="100%"
         height="100%"
         style="fill:#2a7fff" /><use
         x="0"
         y="0"
         xlink:href="#use8486"
         id="use339"
         transform="translate(378)"
         width="100%"
         height="100%"
         style="fill:#2a7fff" /><use
         x="0"
         y="0"
         xlink:href="#use8488"
         id="use341"
         transform="translate(378)"
         width="100%"
         height="100%"
         style="fill:#2a7fff" /><use
         x="0"
         y="0"
         xlink:href="#use8490"
         id="use343"
         transform="translate(378)"
         width="100%"
         height="100%"
         style="fill:#2a7fff" /><path
         style="opacity:0.8;fill:#2a7fff;stroke:none;stroke-width:3.77638;stroke-miterlimit:4;stroke-dasharray:none"
         d="m 21.474387,958.3621 c -6.41557,0 -11.6916606,4.69576 -11.6597626,10.44389 l 0.02544,3.73932 H 4.5893141 v 3.95231 h 5.2724483 l 0.02953,4.94641 H 4.8402832 v 3.95231 h 5.0728082 l 0.02953,5.93351 H 4.8371706 v 3.95581 h 5.1272908 l 0.02544,4.6943 H 4.9606547 v 3.95524 h 5.0509913 l 0.03952,6.809 C 3.7808331,1014.9833 0.0187864,1022.0185 0,1029.5465 c 5.588e-4,12.6022 10.297847,22.8156 23,22.8156 12.702156,0 22.99939,-10.2134 22.999999,-22.8156 -0.01499,-7.647 -3.886124,-14.78 -10.316279,-18.9967 v -41.74381 c 0,-5.74813 -5.244067,-10.44389 -11.659712,-10.44389 H 21.47487 Z m 0,4.53551 h 2.549143 c 3.697901,0 6.597862,2.59552 6.597862,5.90838 v 44.28701 h 0.145067 c -0.01,0.2414 -0.06002,0.4724 -0.134617,0.6918 5.907483,2.9512 9.636555,8.9512 9.644474,15.513 -2.49e-4,9.6043 -7.847206,17.39 -17.527809,17.39 -9.680605,0 -17.5275561,-7.7857 -17.5277619,-17.39 0.0011,-6.5664 3.7303073,-12.5721 9.6408579,-15.527 -0.01544,-0.055 -0.02953,-0.1105 -0.04453,-0.1658 0.02544,0 0.03952,0 0.06002,0 v -44.78093 c 0,-3.31285 2.8964,-5.90837 6.594305,-5.90837 z m -0.261602,32.56086 c -1.314401,0 -2.371124,1.04835 -2.371124,2.3524 v 19.67433 c -5.146855,1.6745 -8.628156,6.4387 -8.631381,11.8126 1.03e-4,6.8708 5.613502,12.4401 12.538576,12.4401 6.925036,0 12.538435,-5.5693 12.538485,-12.4401 -0.0025,-5.4849 -3.627985,-10.3213 -8.921845,-11.9033 v -19.58363 c 0,-1.30405 -1.056674,-2.3524 -2.371179,-2.3524 z"
         id="path345"
         inkscape:connector-curvature="0" /></g></g></svg>
